<mxfile host="65bd71144e">
    <diagram id="zaUWqC4FuSdCaBaxrC4w" name="Page-1">
        <mxGraphModel dx="820" dy="479" grid="1" gridSize="10" guides="1" tooltips="1" connect="1" arrows="1" fold="1" page="1" pageScale="1" pageWidth="827" pageHeight="1169" math="0" shadow="0">
            <root>
                <mxCell id="0"/>
                <mxCell id="1" parent="0"/>
                <mxCell id="66" style="edgeStyle=none;shape=link;html=1;exitX=1;exitY=0.5;exitDx=0;exitDy=0;entryX=0;entryY=0.5;entryDx=0;entryDy=0;fontSize=12;fontColor=#00FF00;" edge="1" parent="1" source="41" target="45">
                    <mxGeometry relative="1" as="geometry"/>
                </mxCell>
                <mxCell id="71" value="" style="edgeStyle=none;shape=flexArrow;html=1;fontSize=12;fontColor=#00FF00;" edge="1" parent="1" source="41" target="48">
                    <mxGeometry relative="1" as="geometry"/>
                </mxCell>
                <UserObject label="&lt;font color=&quot;#00ff00&quot;&gt;刷新要发送给从机的数据&lt;br&gt;quantity：从机数量(0~5)&lt;/font&gt;&lt;br&gt;can_Tx_Buff_refresh(quantity)" name="Tessa Miller" position="CFO" location="Office 1" email="me@example.com" placeholders="1" link="https://www.draw.io" id="41">
                    <mxCell style="label;whiteSpace=wrap;html=1;rounded=0;glass=0;treeMoving=1;treeFolding=1;align=left;fontSize=12;spacingLeft=5;" vertex="1" parent="1">
                        <mxGeometry x="280" y="120" width="200" height="80" as="geometry"/>
                    </mxCell>
                </UserObject>
                <UserObject label="&lt;font color=&quot;#00ff00&quot;&gt;将value写入数组CanScan.Tx_Buff[ID]&lt;/font&gt;&lt;br&gt;can_Tx_Buff_write(uint8_t ID, uint16_t value)" name="Evan Valet" position="HR Director" location="Office 4" email="me@example.com" placeholders="1" link="https://www.draw.io" id="45">
                    <mxCell style="label;whiteSpace=wrap;html=1;rounded=0;glass=0;treeFolding=1;treeMoving=1;spacingLeft=5;" vertex="1" parent="1">
                        <mxGeometry x="520" y="120" width="280" height="80" as="geometry"/>
                    </mxCell>
                </UserObject>
                <mxCell id="68" style="edgeStyle=none;shape=link;html=1;exitX=1;exitY=0.5;exitDx=0;exitDy=0;entryX=0;entryY=0.5;entryDx=0;entryDy=0;fontSize=12;fontColor=#00FF00;" edge="1" parent="1" source="48" target="50">
                    <mxGeometry relative="1" as="geometry"/>
                </mxCell>
                <mxCell id="72" value="" style="edgeStyle=none;shape=flexArrow;html=1;fontSize=12;fontColor=#00FF00;" edge="1" parent="1" source="48" target="51">
                    <mxGeometry relative="1" as="geometry"/>
                </mxCell>
                <UserObject label="&lt;font color=&quot;#00ff00&quot;&gt;将数组CanScan.Tx_Buff&lt;br&gt;中的数据发送给从机&lt;br&gt;quantity：从机数量(0~5)&lt;/font&gt;&lt;br&gt;CanApp_Tx(quantity);" name="Tessa Miller" position="CFO" location="Office 1" email="me@example.com" placeholders="1" link="https://www.draw.io" id="48">
                    <mxCell style="label;whiteSpace=wrap;html=1;rounded=0;glass=0;treeMoving=1;treeFolding=1;align=left;fontSize=12;spacingLeft=5;" vertex="1" parent="1">
                        <mxGeometry x="280" y="240" width="200" height="80" as="geometry"/>
                    </mxCell>
                </UserObject>
                <UserObject label="&lt;font color=&quot;#00ff00&quot;&gt;使用邮箱i(MOBOX0~15)&lt;br&gt;发送一帧数据pdata(4word)&lt;/font&gt;&lt;br&gt;can_send_OneFrameData(i, pdata);" name="Evan Valet" position="HR Director" location="Office 4" email="me@example.com" placeholders="1" link="https://www.draw.io" id="50">
                    <mxCell style="label;whiteSpace=wrap;html=1;rounded=0;glass=0;treeFolding=1;treeMoving=1;spacingLeft=5;" vertex="1" parent="1">
                        <mxGeometry x="520" y="240" width="280" height="80" as="geometry"/>
                    </mxCell>
                </UserObject>
                <mxCell id="69" style="edgeStyle=none;shape=link;html=1;exitX=1;exitY=0.5;exitDx=0;exitDy=0;entryX=0;entryY=0.5;entryDx=0;entryDy=0;fontSize=12;fontColor=#00FF00;" edge="1" parent="1" source="51" target="54">
                    <mxGeometry relative="1" as="geometry"/>
                </mxCell>
                <mxCell id="73" value="" style="edgeStyle=none;shape=flexArrow;html=1;fontSize=12;fontColor=#00FF00;" edge="1" parent="1" source="51" target="56">
                    <mxGeometry relative="1" as="geometry"/>
                </mxCell>
                <UserObject label="&lt;font color=&quot;#00ff00&quot;&gt;主机发送一个远程帧请求，并接收对应的数据&lt;br&gt;quantity：从机数量(0~5)&lt;/font&gt;&lt;br&gt;CanApp_Rx(quantity);" name="Tessa Miller" position="CFO" location="Office 1" email="me@example.com" placeholders="1" link="https://www.draw.io" id="51">
                    <mxCell style="label;whiteSpace=wrap;html=1;rounded=0;glass=0;treeMoving=1;treeFolding=1;align=left;fontSize=12;spacingLeft=5;" vertex="1" parent="1">
                        <mxGeometry x="280" y="360" width="200" height="80" as="geometry"/>
                    </mxCell>
                </UserObject>
                <UserObject label="&lt;font color=&quot;#00ff00&quot;&gt;使用邮箱i(MOBOX16~31)&lt;br&gt;发送远程帧，并接收对应的数据pdata(4word)&lt;/font&gt;&lt;br&gt;can_receive_OneFrameData(i, pdata);" name="Evan Valet" position="HR Director" location="Office 4" email="me@example.com" placeholders="1" link="https://www.draw.io" id="54">
                    <mxCell style="label;whiteSpace=wrap;html=1;rounded=0;glass=0;treeFolding=1;treeMoving=1;spacingLeft=5;" vertex="1" parent="1">
                        <mxGeometry x="520" y="360" width="280" height="80" as="geometry"/>
                    </mxCell>
                </UserObject>
                <mxCell id="70" style="edgeStyle=none;shape=link;html=1;exitX=1;exitY=0.5;exitDx=0;exitDy=0;entryX=0;entryY=0.5;entryDx=0;entryDy=0;fontSize=12;fontColor=#00FF00;" edge="1" parent="1" source="56" target="58">
                    <mxGeometry relative="1" as="geometry"/>
                </mxCell>
                <UserObject label="&lt;font color=&quot;#00ff00&quot;&gt;刷新接收到的从机数据&lt;br&gt;quantity：从机数量(0~5)&lt;/font&gt;&lt;br&gt;can_Rx_Buff_refresh(quantity)" name="Tessa Miller" position="CFO" location="Office 1" email="me@example.com" placeholders="1" link="https://www.draw.io" id="56">
                    <mxCell style="label;whiteSpace=wrap;html=1;rounded=0;glass=0;treeMoving=1;treeFolding=1;align=left;fontSize=12;spacingLeft=5;" vertex="1" parent="1">
                        <mxGeometry x="280" y="480" width="200" height="80" as="geometry"/>
                    </mxCell>
                </UserObject>
                <UserObject label="&lt;font color=&quot;#00ff00&quot;&gt;从数组CanScan.Rx_Buff[ID]中读取数据&lt;/font&gt;&lt;br&gt;can_Rx_Buff_read(uint8_t ID )" name="Evan Valet" position="HR Director" location="Office 4" email="me@example.com" placeholders="1" link="https://www.draw.io" id="58">
                    <mxCell style="label;whiteSpace=wrap;html=1;rounded=0;glass=0;treeFolding=1;treeMoving=1;spacingLeft=5;" vertex="1" parent="1">
                        <mxGeometry x="520" y="480" width="280" height="80" as="geometry"/>
                    </mxCell>
                </UserObject>
                <mxCell id="62" style="edgeStyle=none;shape=link;html=1;exitX=1;exitY=0.5;exitDx=0;exitDy=0;entryX=0;entryY=0.5;entryDx=0;entryDy=0;fontSize=12;fontColor=#00FF00;" edge="1" parent="1" source="59" target="41">
                    <mxGeometry relative="1" as="geometry"/>
                </mxCell>
                <mxCell id="63" style="edgeStyle=none;shape=link;html=1;exitX=1;exitY=0.5;exitDx=0;exitDy=0;entryX=0;entryY=0.5;entryDx=0;entryDy=0;fontSize=12;fontColor=#00FF00;" edge="1" parent="1" source="59" target="48">
                    <mxGeometry relative="1" as="geometry"/>
                </mxCell>
                <mxCell id="64" style="edgeStyle=none;shape=link;html=1;exitX=1;exitY=0.5;exitDx=0;exitDy=0;entryX=0;entryY=0.5;entryDx=0;entryDy=0;fontSize=12;fontColor=#00FF00;" edge="1" parent="1" source="59" target="51">
                    <mxGeometry relative="1" as="geometry"/>
                </mxCell>
                <mxCell id="65" style="edgeStyle=none;shape=link;html=1;exitX=1;exitY=0.5;exitDx=0;exitDy=0;entryX=0;entryY=0.5;entryDx=0;entryDy=0;fontSize=12;fontColor=#00FF00;" edge="1" parent="1" source="59" target="56">
                    <mxGeometry relative="1" as="geometry"/>
                </mxCell>
                <UserObject label="&lt;font color=&quot;#00ff00&quot;&gt;can收发任务，至快2ms调用一次&lt;br&gt;quantity：从机数量(0~5)&lt;/font&gt;&lt;br&gt;CanApp_MainFunction(uint8_t quantity)" name="Tessa Miller" position="CFO" location="Office 1" email="me@example.com" placeholders="1" link="https://www.draw.io" id="59">
                    <mxCell style="label;whiteSpace=wrap;html=1;rounded=0;glass=0;treeMoving=1;treeFolding=1;align=left;fontSize=12;spacingLeft=5;" vertex="1" parent="1">
                        <mxGeometry y="300" width="240" height="85" as="geometry"/>
                    </mxCell>
                </UserObject>
            </root>
        </mxGraphModel>
    </diagram>
</mxfile>